<?xml version="1.0" encoding="utf-8"?>
<!-- Generator: Adobe Illustrator 22.1.0, SVG Export Plug-In . SVG Version: 6.00 Build 0)  -->
<svg version="1.1" id="Layer_1" xmlns="http://www.w3.org/2000/svg" xmlns:xlink="http://www.w3.org/1999/xlink" x="0px" y="0px"
	 viewBox="0 0 200 200" style="enable-background:new 0 0 200 200;" xml:space="preserve">
<style type="text/css">
	.st0{fill:#F20C23;}
	.st1{fill:#010101;}
</style>
<path class="st0" d="M22.5,165h-8.1v-4.2h1.7v-15.6h-1.7v-4.3h13.1l2.3,2.7v8.9l-2.5,2.4h-1.5l3.2,5.8h1v4.2h-6.7v-4.2h1l-3-5.6H21
	v5.6h1.5V165z M24.9,145.3H21v5.4h3.8v-5.4H24.9z"/>
<path class="st1" d="M37.2,165h-6.3v-4.1h0.9l3.6-15.6h-1V141h7.2v4.3h-0.8l4,15.6h0.9v4.2h-6.3v-4.2h1l-0.3-1.3h-3.4l-0.4,1.3h1.1
	v4.1L37.2,165L37.2,165z M39.1,156.3l-0.9-3.7l-1,3.7H39.1z"/>
<path class="st1" d="M56.7,156.6h4.7v6.3l-2.2,2.2H48.9l-2.3-2.3v-19.9l2-1.9h10.6l2.2,2.1v4.6h-4.7v-2.5h-5.5v15.6h5.4L56.7,156.6
	L56.7,156.6z"/>
<path class="st1" d="M78.3,165H62.6v-4.2h1.7v-15.6h-1.8v-4.3h15.8v6.9h-4.6v-2.6H69v5.5h3.6v4.2H69v5.8h4.7v-3.2h4.6
	C78.3,157.5,78.3,165,78.3,165z"/>
<path class="st0" d="M94.6,140.9h8.4v4.4h-1.4v15.5h1.4v4.2h-7.6v-4.2h1.3v-8.9L92.9,165h-3.2L86,151.9v8.9h1.5v4.2h-8.2v-4.2H81
	v-15.5h-1.8v-4.4H88l3.3,16.2L94.6,140.9z"/>
<path class="st1" d="M110.6,165h-6.3v-4.1h0.9l3.6-15.6h-1V141h7.2v4.3h-1l4,15.6h0.9v4.2h-6.3v-4.2h1l-0.3-1.3h-3.4l-0.4,1.3h1.1
	C110.6,160.9,110.6,165,110.6,165z M112.4,156.3l-0.9-3.7l-1,3.7H112.4z"/>
<path class="st1" d="M129.1,145.2v-4.3h7.7v4.3h-1.3l-5.2,6.8l5,8.7h1.4v4.2H129v-4.2h1.3l-2.6-5.1l-1.2,1.6v3.5h1.7v4.2H120v-4.2
	h1.8v-15.6h-1.7v-4.3h8.1v4.3h-1.7v4.8l3.7-4.8h-1.1V145.2z"/>
<path class="st1" d="M153.4,165h-15.7v-4.2h1.7v-15.6h-1.8v-4.3h15.8v6.9h-4.6v-2.6h-4.6v5.5h3.6v4.2h-3.6v5.8h4.7v-3.2h4.6
	L153.4,165L153.4,165z"/>
<path class="st1" d="M162.7,165h-8.1v-4.2h1.7v-15.6h-1.7v-4.3h13.1l2.3,2.7v8.9l-2.5,2.4H166l3.2,5.8h0.9v4.2h-6.7v-4.2h1l-3-5.6
	h-0.2v5.6h1.5V165z M165,145.3h-3.8v5.4h3.8V145.3z"/>
<path class="st1" d="M171,157.9h4.7v2.9h5.5V155h-7.9l-2.3-2.2v-9.7l2.2-2.1h10.3l2.5,2.4v4.6h-4.8v-2.8h-5.4v5.4h7.9l2.2,2.2v9.8
	l-2.3,2.3h-10l-2.6-2.6L171,157.9L171,157.9z"/>
<path class="st0" d="M48.7,135.6H14.4v-17.7h7.2V52.5h-7V34.4h55.3l9.5,11.3v37.6L68.7,93.6h-6.3l13.7,24.3h3.8v17.7H51.5v-17.7h4.1
	L43.1,94.4h-0.9V118h6.4v17.6H48.7z M58.4,52.6H42.3v22.8h16.2L58.4,52.6L58.4,52.6z"/>
<path class="st0" d="M150.7,34.3H186v18.3h-6v65.2h6v17.8h-32v-17.8h5.3V80.6l-15.7,55.1h-13.3l-15.4-55.1v37.3h6.4v17.8H86.9v-17.8
	h7.3V52.7h-7.5V34.3h37l14,68.4L150.7,34.3z"/>
</svg>
