<?xml version="1.0" encoding="utf-8"?>
<!-- Generator: Adobe Illustrator 22.1.0, SVG Export Plug-In . SVG Version: 6.00 Build 0)  -->
<svg version="1.1" id="Layer_1" xmlns="http://www.w3.org/2000/svg" xmlns:xlink="http://www.w3.org/1999/xlink" x="0px" y="0px"
	 viewBox="0 0 171.6 130.8" style="enable-background:new 0 0 171.6 130.8;" xml:space="preserve">
<style type="text/css">
	.st0{fill:#FFFFFF;}
	.st1{fill:#010101;}
</style>
<path class="st0" d="M8.1,130.7H0v-4.2h1.7v-15.6H0v-4.3h13.1l2.3,2.7v8.9l-2.5,2.4h-1.5l3.2,5.8h1v4.2H8.9v-4.2h1l-3-5.6H6.6v5.6
	h1.5V130.7z M10.5,111H6.6v5.4h3.8V111H10.5z"/>
<path class="st1" d="M22.8,130.7h-6.3v-4.1h0.9L21,111h-1v-4.3h7.2v4.3h-0.8l4,15.6h0.9v4.2H25v-4.2h1l-0.3-1.3h-3.4l-0.4,1.3H23
	v4.1L22.8,130.7L22.8,130.7z M24.7,122l-0.9-3.7l-1,3.7H24.7z"/>
<path class="st1" d="M42.3,122.3H47v6.3l-2.2,2.2H34.5l-2.3-2.3v-19.9l2-1.9h10.6l2.2,2.1v4.6h-4.7v-2.5h-5.5v15.6h5.4L42.3,122.3
	L42.3,122.3z"/>
<path class="st1" d="M63.9,130.7H48.2v-4.2h1.7v-15.6h-1.8v-4.3h15.8v6.9h-4.6v-2.6h-4.7v5.5h3.6v4.2h-3.6v5.8h4.7v-3.2h4.6
	C63.9,123.2,63.9,130.7,63.9,130.7z"/>
<path class="st0" d="M80.2,106.6h8.4v4.4h-1.4v15.5h1.4v4.2H81v-4.2h1.3v-8.9l-3.8,13.1h-3.2l-3.7-13.1v8.9h1.5v4.2h-8.2v-4.2h1.7
	V111h-1.8v-4.4h8.8l3.3,16.2L80.2,106.6z"/>
<path class="st1" d="M96.2,130.7h-6.3v-4.1h0.9l3.6-15.6h-1v-4.3h7.2v4.3h-1l4,15.6h0.9v4.2h-6.3v-4.2h1l-0.3-1.3h-3.4l-0.4,1.3h1.1
	C96.2,126.6,96.2,130.7,96.2,130.7z M98,122l-0.9-3.7l-1,3.7H98z"/>
<path class="st1" d="M114.7,110.9v-4.3h7.7v4.3h-1.3l-5.2,6.8l5,8.7h1.4v4.2h-7.7v-4.2h1.3l-2.6-5.1l-1.2,1.6v3.5h1.7v4.2h-8.2v-4.2
	h1.8v-15.6h-1.7v-4.3h8.1v4.3h-1.7v4.8l3.7-4.8h-1.1V110.9z"/>
<path class="st1" d="M139,130.7h-15.7v-4.2h1.7v-15.6h-1.8v-4.3H139v6.9h-4.6v-2.6h-4.6v5.5h3.6v4.2h-3.6v5.8h4.7v-3.2h4.6
	L139,130.7L139,130.7z"/>
<path class="st1" d="M148.3,130.7h-8.1v-4.2h1.7v-15.6h-1.7v-4.3h13.1l2.3,2.7v8.9l-2.5,2.4h-1.5l3.2,5.8h0.9v4.2H149v-4.2h1l-3-5.6
	h-0.2v5.6h1.5V130.7z M150.6,111h-3.8v5.4h3.8V111z"/>
<path class="st1" d="M156.6,123.6h4.7v2.9h5.5v-5.8h-7.9l-2.3-2.2v-9.7l2.2-2.1h10.3l2.5,2.4v4.6h-4.8v-2.8h-5.4v5.4h7.9l2.2,2.2
	v9.8l-2.3,2.3h-10l-2.6-2.6L156.6,123.6L156.6,123.6z"/>
<path class="st0" d="M34.3,101.3H0V83.6h7.2V18.2h-7V0.1h55.3L65,11.4V49L54.3,59.3H48l13.7,24.3h3.8v17.7H37.1V83.6h4.1L28.7,60.1
	h-0.9v23.6h6.4v17.6H34.3z M44,18.3H27.9v22.8h16.2L44,18.3L44,18.3z"/>
<path class="st0" d="M136.3,0h35.3v18.3h-6v65.2h6v17.8h-32V83.5h5.3V46.3l-15.7,55.1h-13.3l-15.4-55.1v37.3h6.4v17.8H72.5V83.6h7.3
	V18.4h-7.5V0h37l14,68.4L136.3,0z"/>
</svg>
