<?xml version="1.0" encoding="utf-8"?>
<!-- Generator: Adobe Illustrator 22.1.0, SVG Export Plug-In . SVG Version: 6.00 Build 0)  -->
<svg version="1.1" id="Layer_1" xmlns="http://www.w3.org/2000/svg" xmlns:xlink="http://www.w3.org/1999/xlink" x="0px" y="0px"
	 viewBox="0 0 614 617.6" style="enable-background:new 0 0 614 617.6;" xml:space="preserve">
<style type="text/css">
	.st0{fill:#2D3638;}
	.st1{fill:#0E1920;}
</style>
<path class="st0" d="M12.3,309C12.3,146.5,144,14.8,306.5,14.8c162.5,0,294.1,131.7,294.1,294.2c0,162.5-131.7,294.2-294.1,294.2
	C144,603.1,12.3,471.4,12.3,309L12.3,309z"/>
<path class="st1" d="M418.8,426.1c-103.7,96.1-131.2,136.6-131.2,136.6S266.6,523.1,175.1,426c-65-69-76.7-118.2-71.3-175.5
	c5.3-55.2,52.2-105.8,110.4-105.8c58.3,0,100.1,42.4,95.7,105.8c-97-41.4-141.8,99.7-7.1,99.7c34.6,0,144.5-12.7,221.3-216.7
	C520.9,223.6,544.7,309.4,418.8,426.1L418.8,426.1z"/>
</svg>
